<?xml version="1.0" encoding="utf-8"?>
<!-- Generator: Adobe Illustrator 25.4.1, SVG Export Plug-In . SVG Version: 6.00 Build 0)  -->
<svg version="1.1" id="Layer_1" xmlns="http://www.w3.org/2000/svg" xmlns:xlink="http://www.w3.org/1999/xlink" x="0px" y="0px"
	 viewBox="0 0 810 810" style="enable-background:new 0 0 810 810;" xml:space="preserve">
<style type="text/css">
	.st0{fill:#8E8E8E;}
	.st1{fill:url(#SVGID_1_);}
	.st2{fill:#E2E2E2;}
	.st3{fill:#353535;}
	.st4{fill:#CECECE;}
	.st5{fill:#494949;}
</style>
<path class="st0" d="M454.9,673.2l-0.5,0.4c-3.6,2.4-7.4,4.6-11.4,6.4c-4,1.9-8,3.4-12.2,4.7c-4.2,1.3-8.4,2.2-12.8,2.9
	c-4.3,0.6-8.7,1-13.1,1c-4.4,0-8.7-0.3-13.1-1c-4.3-0.6-8.6-1.6-12.8-2.9c-4.2-1.3-8.3-2.8-12.2-4.7c-4-1.9-7.8-4-11.4-6.4l-0.5-0.4
	l50-65.7"/>
<linearGradient id="SVGID_1_" gradientUnits="userSpaceOnUse" x1="405" y1="751.5494" x2="405" y2="103.5495">
	<stop  offset="0" style="stop-color:#895442"/>
	<stop  offset="1" style="stop-color:#D18369"/>
</linearGradient>
<path class="st1" d="M405,94.5l-71.4-11.9c-6.4-1.1-12.9-1.6-19.4-1.6c-3.5,0-7.1,0.2-10.6,0.5c-3.5,0.3-7,0.8-10.5,1.4
	c-3.5,0.6-6.9,1.4-10.3,2.4s-6.8,2-10.1,3.3c-3.3,1.2-6.5,2.6-9.7,4.2c-3.2,1.5-6.3,3.2-9.3,5c-3,1.8-6,3.8-8.8,5.8
	s-5.6,4.3-8.3,6.6l-62.1,54.3C166.2,171.8,157,178,147,183c-6.3,3.1-12.3,6.8-18,10.9c-5.7,4.1-11,8.6-16,13.6
	c-5,5-9.5,10.3-13.6,16c-4.1,5.7-7.7,11.7-10.9,18L12.7,393.1c-4.2,8.4-7.3,17.1-9.5,26.2S0,437.6,0,446.9c0,8.4,0.9,16.8,2.6,25
	c1.7,8.2,4.3,16.2,7.8,23.9l25.8,58c5.9,13.2,10.3,27,13.3,41.1c3,14.2,4.5,28.5,4.5,43c0,6.7,0.7,13.3,2,19.9
	c0.4,2.1,0.9,4.2,1.5,6.3c0.6,2.1,1.2,4.1,2,6.1c0.7,2,1.5,4,2.4,6c0.9,2,1.8,3.9,2.9,5.8s2.1,3.7,3.3,5.5s2.4,3.6,3.7,5.3
	s2.7,3.4,4.1,5c1.4,1.6,2.9,3.2,4.5,4.6c1.5,1.5,3.1,2.9,4.8,4.3c1.7,1.4,3.4,2.7,5.1,3.9c1.8,1.2,3.5,2.4,5.4,3.5
	c1.8,1.1,3.7,2.1,5.6,3.1c1.9,1,3.9,1.9,5.9,2.7c2,0.8,4,1.6,6,2.2c2,0.7,4.1,1.3,6.2,1.8c2.1,0.5,4.2,0.9,6.3,1.3h0.4
	c15.1,2.5,30.2,3.8,45.5,3.8c1.5,0,2.9-0.1,4.4-0.2s2.9-0.4,4.3-0.6c1.4-0.3,2.8-0.6,4.2-1.1c1.4-0.4,2.8-0.9,4.1-1.5
	s2.7-1.2,3.9-1.9c1.3-0.7,2.5-1.4,3.8-2.2c1.2-0.8,2.4-1.7,3.5-2.6c1.1-0.9,2.2-1.9,3.2-2.9c1-1,2-2.1,2.9-3.2
	c0.9-1.1,1.8-2.3,2.6-3.5c0.8-1.2,1.6-2.5,2.2-3.8c0.7-1.3,1.3-2.6,1.9-3.9s1-2.7,1.5-4.1c0.4-1.4,0.8-2.8,1.1-4.2
	c0.3-1.4,0.5-2.9,0.6-4.3s0.2-2.9,0.2-4.4c0-25.5-1.9-50.9-5.7-76.1s-9.4-50-16.9-74.4L162,432l18.8,25.1
	c10.1,13.5,19.4,27.7,27.7,42.4c8.3,14.7,15.6,29.9,22,45.6s11.6,31.7,15.9,48.1c4.3,16.4,7.4,32.9,9.5,49.7c0.4,3.4,1.2,6.7,2.3,10
	c0.4,1.3,0.9,2.6,1.4,3.8c0.5,1.2,1.1,2.5,1.7,3.7c0.6,1.2,1.3,2.4,2,3.5s1.5,2.3,2.3,3.4c0.8,1.1,1.6,2.2,2.5,3.2
	c0.9,1,1.8,2,2.8,3c1,1,2,1.9,3,2.7c1,0.9,2.1,1.7,3.2,2.5c1.1,0.8,2.2,1.5,3.4,2.2c1.2,0.7,2.3,1.4,3.6,2c1.2,0.6,2.4,1.2,3.7,1.7
	s2.5,1,3.8,1.4c1.3,0.4,2.6,0.8,3.9,1.1c1.3,0.3,2.6,0.6,4,0.8s2.7,0.4,4,0.5s2.7,0.2,4.1,0.2c3.3,0,6.6-0.2,10-0.6
	c3.3-0.4,6.6-1,9.8-1.8s6.4-1.8,9.5-3c3.1-1.2,6.1-2.6,9.1-4.2c2.9-1.6,5.8-3.3,8.5-5.2c2.7-1.9,5.3-4,7.8-6.2
	c2.5-2.2,4.8-4.6,7-7.1s4.2-5.2,6-7.9l29.9-44.8l29.9,44.8c1.8,2.8,3.9,5.4,6,7.9s4.5,4.9,7,7.1s5.1,4.3,7.8,6.2
	c2.7,1.9,5.6,3.7,8.5,5.2c2.9,1.6,6,3,9.1,4.2s6.3,2.2,9.5,3c3.2,0.8,6.5,1.4,9.8,1.8c3.3,0.4,6.6,0.6,10,0.6c1.4,0,2.7-0.1,4.1-0.2
	c1.4-0.1,2.7-0.3,4-0.5s2.7-0.5,4-0.8c1.3-0.3,2.6-0.7,3.9-1.1c1.3-0.4,2.6-0.9,3.8-1.4c1.3-0.5,2.5-1.1,3.7-1.7
	c1.2-0.6,2.4-1.3,3.6-2c1.2-0.7,2.3-1.5,3.4-2.2c1.1-0.8,2.2-1.6,3.2-2.5c1-0.9,2-1.8,3-2.7c1-1,1.9-1.9,2.8-3s1.7-2.1,2.5-3.2
	c0.8-1.1,1.6-2.2,2.3-3.4c0.7-1.1,1.4-2.3,2-3.5c0.6-1.2,1.2-2.4,1.7-3.7c0.5-1.2,1-2.5,1.4-3.8c1.1-3.3,1.8-6.6,2.3-10
	c2.1-16.8,5.3-33.4,9.5-49.7c4.2-16.4,9.5-32.4,15.9-48.1s13.7-30.9,22-45.6c8.3-14.7,17.5-28.9,27.7-42.4L648,432l-31.4,102
	c-7.5,24.4-13.1,49.2-16.9,74.4s-5.7,50.6-5.7,76.1c0,1.5,0.1,2.9,0.2,4.4s0.4,2.9,0.6,4.3c0.3,1.4,0.6,2.8,1.1,4.2
	c0.4,1.4,0.9,2.8,1.5,4.1s1.2,2.7,1.9,3.9c0.7,1.3,1.4,2.5,2.2,3.8c0.8,1.2,1.7,2.4,2.6,3.5c0.9,1.1,1.9,2.2,2.9,3.2
	c1,1,2.1,2,3.2,2.9c1.1,0.9,2.3,1.8,3.5,2.6c1.2,0.8,2.5,1.6,3.8,2.2c1.3,0.7,2.6,1.3,3.9,1.9s2.7,1,4.1,1.5
	c1.4,0.4,2.8,0.8,4.2,1.1c1.4,0.3,2.9,0.5,4.3,0.6s2.9,0.2,4.4,0.2c15.3,0,30.5-1.3,45.5-3.8h0.4c2.1-0.4,4.2-0.8,6.3-1.3
	c2.1-0.5,4.1-1.1,6.2-1.8s4.1-1.4,6-2.2c2-0.8,3.9-1.7,5.9-2.7c1.9-1,3.8-2,5.6-3.1c1.8-1.1,3.6-2.3,5.4-3.5
	c1.7-1.2,3.4-2.6,5.1-3.9c1.6-1.4,3.2-2.8,4.8-4.3c1.5-1.5,3-3,4.4-4.6s2.8-3.3,4.1-5s2.5-3.5,3.7-5.3s2.3-3.6,3.3-5.5
	c1-1.9,2-3.8,2.9-5.8c0.9-2,1.7-3.9,2.4-6c0.7-2,1.4-4.1,2-6.1s1.1-4.2,1.5-6.3c1.3-6.6,2-13.2,2-19.9c0-14.5,1.5-28.8,4.5-43
	c3-14.2,7.5-27.9,13.3-41.1l25.8-58c3.4-7.7,6-15.7,7.8-23.9c1.8-8.2,2.6-16.6,2.6-25c0-9.3-1.1-18.6-3.2-27.7
	c-2.1-9.1-5.3-17.8-9.5-26.2l-75.8-151.6c-3.1-6.3-6.8-12.3-10.9-18c-4.1-5.7-8.6-11-13.6-16c-5-5-10.3-9.5-16-13.6
	c-5.7-4.1-11.7-7.7-18-10.9c-10-5-19.2-11.2-27.6-18.6l-62.1-54.3c-2.7-2.3-5.4-4.5-8.3-6.6c-2.9-2.1-5.8-4-8.8-5.8
	c-3-1.8-6.1-3.5-9.3-5c-3.2-1.5-6.4-2.9-9.7-4.2c-3.3-1.2-6.7-2.3-10.1-3.3c-3.4-0.9-6.8-1.7-10.3-2.4c-3.5-0.6-7-1.1-10.5-1.4
	c-3.5-0.3-7-0.5-10.6-0.5c-6.5,0-12.9,0.5-19.4,1.6L405,94.5z"/>
<path class="st2" d="M521.5,418.6c-1.4-4.4-3.1-8.6-5.1-12.7c-2-4.1-4.4-8-7-11.8c-2.6-3.7-5.6-7.3-8.8-10.6s-6.6-6.3-10.3-9.1
	c-2.5-1.8-4.8-3.8-7.1-5.9c-2.2-2.1-4.4-4.3-6.4-6.6s-3.9-4.7-5.7-7.2c-1.8-2.5-3.4-5.1-4.9-7.8s-2.8-5.4-4.1-8.3
	c-1.2-2.8-2.3-5.7-3.2-8.6c-0.9-2.9-1.7-5.9-2.2-8.9c-0.6-3-1-6-1.3-9.1l-6.3-69.2c-0.1-1.4-0.3-2.7-0.6-4.1c-0.2-1.3-0.6-2.7-0.9-4
	c-0.4-1.3-0.8-2.6-1.3-3.9c-0.5-1.3-1-2.5-1.6-3.8c-0.6-1.2-1.3-2.4-2-3.6c-0.7-1.2-1.5-2.3-2.3-3.4c-0.8-1.1-1.7-2.1-2.6-3.2
	c-0.9-1-1.9-2-2.9-2.9c-1-0.9-2.1-1.8-3.2-2.6c-1.1-0.8-2.2-1.6-3.4-2.3s-2.4-1.4-3.6-2s-2.5-1.2-3.8-1.7s-2.6-0.9-3.9-1.3
	s-2.6-0.7-4-0.9c-1.3-0.3-2.7-0.4-4.1-0.6c-1.4-0.1-2.7-0.2-4.1-0.2s-2.7,0.1-4.1,0.2c-1.4,0.1-2.7,0.3-4.1,0.6
	c-1.3,0.2-2.7,0.6-4,0.9s-2.6,0.8-3.9,1.3s-2.5,1-3.8,1.7s-2.4,1.3-3.6,2s-2.3,1.5-3.4,2.3c-1.1,0.8-2.1,1.7-3.2,2.6
	c-1,0.9-2,1.9-2.9,2.9c-0.9,1-1.8,2.1-2.6,3.2c-0.8,1.1-1.6,2.2-2.3,3.4c-0.7,1.2-1.4,2.4-2,3.6c-0.6,1.2-1.2,2.5-1.6,3.8
	c-0.5,1.3-0.9,2.6-1.3,3.9c-0.4,1.3-0.7,2.7-0.9,4c-0.2,1.3-0.4,2.7-0.6,4.1l-6.3,69.2c-0.3,3.1-0.7,6.1-1.3,9.1
	c-0.6,3-1.3,6-2.3,8.9c-0.9,2.9-2,5.8-3.2,8.6c-1.2,2.8-2.6,5.6-4.1,8.3s-3.1,5.3-4.9,7.8c-1.8,2.5-3.7,4.9-5.7,7.2
	c-2,2.3-4.2,4.5-6.4,6.6c-2.2,2.1-4.6,4.1-7.1,5.9c-3.7,2.8-7.1,5.8-10.3,9.1s-6.1,6.8-8.8,10.6c-2.6,3.7-5,7.7-7,11.8
	c-2,4.1-3.7,8.4-5.1,12.7l-48.1,154v0.2c7.3,22.9,12.5,46.2,15.5,70c0.4,3.4,1.2,6.7,2.3,10c0.4,1.3,0.9,2.6,1.4,3.8
	c0.5,1.2,1.1,2.5,1.7,3.7c0.6,1.2,1.3,2.4,2,3.5c0.7,1.1,1.5,2.3,2.3,3.4c0.8,1.1,1.6,2.2,2.5,3.2c0.9,1,1.8,2,2.8,3
	c1,1,2,1.9,3,2.7c1,0.9,2.1,1.7,3.2,2.5c1.1,0.8,2.2,1.5,3.4,2.2c1.2,0.7,2.3,1.4,3.6,2c1.2,0.6,2.4,1.2,3.7,1.7s2.5,1,3.8,1.4
	s2.6,0.8,3.9,1.1c1.3,0.3,2.6,0.6,4,0.8c1.3,0.2,2.7,0.4,4,0.5c1.3,0.1,2.7,0.2,4.1,0.2c3.3,0,6.6-0.2,10-0.6c3.3-0.4,6.6-1,9.8-1.8
	s6.4-1.8,9.5-3c3.1-1.2,6.1-2.6,9.1-4.2c2.9-1.6,5.8-3.3,8.5-5.2c2.7-1.9,5.3-4,7.8-6.2c2.5-2.2,4.8-4.6,7-7.1s4.2-5.2,6-7.9
	l29.9-44.8l29.9,44.8c1.8,2.8,3.9,5.4,6,7.9s4.5,4.9,7,7.1s5.1,4.3,7.8,6.2c2.7,1.9,5.6,3.7,8.5,5.2c2.9,1.6,6,3,9.1,4.2
	s6.3,2.2,9.5,3c3.2,0.8,6.5,1.4,9.8,1.8c3.3,0.4,6.6,0.6,10,0.6c1.4,0,2.7-0.1,4.1-0.2c1.4-0.1,2.7-0.3,4-0.5s2.7-0.5,4-0.8
	c1.3-0.3,2.6-0.7,3.9-1.1c1.3-0.4,2.6-0.9,3.8-1.4c1.3-0.5,2.5-1.1,3.7-1.7c1.2-0.6,2.4-1.3,3.6-2c1.2-0.7,2.3-1.5,3.4-2.2
	c1.1-0.8,2.2-1.6,3.2-2.5c1-0.9,2-1.8,3-2.7c1-1,1.9-1.9,2.8-3s1.7-2.1,2.5-3.2c0.8-1.1,1.6-2.2,2.3-3.4c0.7-1.1,1.4-2.3,2-3.5
	c0.6-1.2,1.2-2.4,1.7-3.7c0.5-1.2,1-2.5,1.4-3.8c1.1-3.3,1.8-6.6,2.3-10c3-23.8,8.2-47.2,15.6-70v-0.2L521.5,418.6z"/>
<path class="st3" d="M297,310.5c0,0.9,0,1.8-0.1,2.6c-0.1,0.9-0.2,1.8-0.4,2.6s-0.4,1.7-0.6,2.6c-0.3,0.8-0.6,1.7-0.9,2.5
	c-0.3,0.8-0.7,1.6-1.1,2.4c-0.4,0.8-0.9,1.5-1.4,2.3s-1,1.4-1.6,2.1s-1.2,1.3-1.8,2c-0.6,0.6-1.3,1.2-2,1.8s-1.4,1.1-2.1,1.6
	s-1.5,0.9-2.3,1.4c-0.8,0.4-1.6,0.8-2.4,1.1c-0.8,0.3-1.6,0.6-2.5,0.9c-0.8,0.3-1.7,0.5-2.6,0.6s-1.7,0.3-2.6,0.4
	c-0.9,0.1-1.8,0.1-2.6,0.1s-1.8,0-2.6-0.1c-0.9-0.1-1.8-0.2-2.6-0.4s-1.7-0.4-2.6-0.6c-0.8-0.3-1.7-0.6-2.5-0.9
	c-0.8-0.3-1.6-0.7-2.4-1.1c-0.8-0.4-1.5-0.9-2.3-1.4s-1.4-1-2.1-1.6s-1.3-1.2-2-1.8c-0.6-0.6-1.2-1.3-1.8-2s-1.1-1.4-1.6-2.1
	s-0.9-1.5-1.4-2.3c-0.4-0.8-0.8-1.6-1.1-2.4c-0.3-0.8-0.6-1.6-0.9-2.5c-0.3-0.8-0.5-1.7-0.6-2.6s-0.3-1.7-0.4-2.6
	c-0.1-0.9-0.1-1.8-0.1-2.6s0-1.8,0.1-2.6c0.1-0.9,0.2-1.8,0.4-2.6s0.4-1.7,0.6-2.6c0.3-0.8,0.6-1.7,0.9-2.5c0.3-0.8,0.7-1.6,1.1-2.4
	c0.4-0.8,0.9-1.5,1.4-2.3s1-1.4,1.6-2.1s1.2-1.3,1.8-2c0.6-0.6,1.3-1.2,2-1.8s1.4-1.1,2.1-1.6s1.5-0.9,2.3-1.4
	c0.8-0.4,1.6-0.8,2.4-1.1c0.8-0.3,1.6-0.6,2.5-0.9c0.8-0.3,1.7-0.5,2.6-0.6s1.7-0.3,2.6-0.4c0.9-0.1,1.8-0.1,2.6-0.1s1.8,0,2.6,0.1
	c0.9,0.1,1.8,0.2,2.6,0.4s1.7,0.4,2.6,0.6c0.8,0.3,1.7,0.6,2.5,0.9c0.8,0.3,1.6,0.7,2.4,1.1c0.8,0.4,1.5,0.9,2.3,1.4s1.4,1,2.1,1.6
	s1.3,1.2,2,1.8c0.6,0.6,1.2,1.3,1.8,2s1.1,1.4,1.6,2.1s0.9,1.5,1.4,2.3c0.4,0.8,0.8,1.6,1.1,2.4c0.3,0.8,0.6,1.6,0.9,2.5
	c0.3,0.8,0.5,1.7,0.6,2.6s0.3,1.7,0.4,2.6C297,308.7,297,309.6,297,310.5z"/>
<path class="st3" d="M567,310.5c0,0.9,0,1.8-0.1,2.6c-0.1,0.9-0.2,1.8-0.4,2.6s-0.4,1.7-0.6,2.6c-0.3,0.8-0.6,1.7-0.9,2.5
	c-0.3,0.8-0.7,1.6-1.1,2.4c-0.4,0.8-0.9,1.5-1.4,2.3s-1,1.4-1.6,2.1s-1.2,1.3-1.8,2c-0.6,0.6-1.3,1.2-2,1.8s-1.4,1.1-2.1,1.6
	s-1.5,0.9-2.3,1.4c-0.8,0.4-1.6,0.8-2.4,1.1c-0.8,0.3-1.6,0.6-2.5,0.9c-0.8,0.3-1.7,0.5-2.6,0.6s-1.7,0.3-2.6,0.4
	c-0.9,0.1-1.8,0.1-2.6,0.1s-1.8,0-2.6-0.1c-0.9-0.1-1.8-0.2-2.6-0.4c-0.9-0.2-1.7-0.4-2.6-0.6c-0.8-0.3-1.7-0.6-2.5-0.9
	c-0.8-0.3-1.6-0.7-2.4-1.1c-0.8-0.4-1.5-0.9-2.3-1.4s-1.4-1-2.1-1.6s-1.3-1.2-2-1.8c-0.6-0.6-1.2-1.3-1.8-2s-1.1-1.4-1.6-2.1
	s-0.9-1.5-1.4-2.3c-0.4-0.8-0.8-1.6-1.1-2.4s-0.6-1.6-0.9-2.5c-0.3-0.8-0.5-1.7-0.6-2.6s-0.3-1.7-0.4-2.6c-0.1-0.9-0.1-1.8-0.1-2.6
	s0-1.8,0.1-2.6c0.1-0.9,0.2-1.8,0.4-2.6s0.4-1.7,0.6-2.6c0.3-0.8,0.6-1.7,0.9-2.5s0.7-1.6,1.1-2.4c0.4-0.8,0.9-1.5,1.4-2.3
	s1-1.4,1.6-2.1s1.2-1.3,1.8-2c0.6-0.6,1.3-1.2,2-1.8s1.4-1.1,2.1-1.6s1.5-0.9,2.3-1.4c0.8-0.4,1.6-0.8,2.4-1.1
	c0.8-0.3,1.6-0.6,2.5-0.9c0.8-0.3,1.7-0.5,2.6-0.6c0.9-0.2,1.7-0.3,2.6-0.4c0.9-0.1,1.8-0.1,2.6-0.1s1.8,0,2.6,0.1
	c0.9,0.1,1.8,0.2,2.6,0.4s1.7,0.4,2.6,0.6c0.8,0.3,1.7,0.6,2.5,0.9c0.8,0.3,1.6,0.7,2.4,1.1c0.8,0.4,1.5,0.9,2.3,1.4s1.4,1,2.1,1.6
	s1.3,1.2,2,1.8c0.6,0.6,1.2,1.3,1.8,2s1.1,1.4,1.6,2.1s0.9,1.5,1.4,2.3c0.4,0.8,0.8,1.6,1.1,2.4c0.3,0.8,0.6,1.6,0.9,2.5
	c0.3,0.8,0.5,1.7,0.6,2.6s0.3,1.7,0.4,2.6C567,308.7,567,309.6,567,310.5z"/>
<path class="st4" d="M283.5,310.5c0,0.9-0.1,1.8-0.3,2.6c-0.2,0.9-0.4,1.7-0.8,2.5c-0.3,0.8-0.8,1.6-1.2,2.3c-0.5,0.7-1.1,1.4-1.7,2
	c-0.6,0.6-1.3,1.2-2,1.7c-0.7,0.5-1.5,0.9-2.3,1.2c-0.8,0.3-1.7,0.6-2.5,0.8c-0.9,0.2-1.7,0.3-2.6,0.3s-1.8-0.1-2.6-0.3
	c-0.9-0.2-1.7-0.4-2.5-0.8c-0.8-0.3-1.6-0.8-2.3-1.2c-0.7-0.5-1.4-1.1-2-1.7c-0.6-0.6-1.2-1.3-1.7-2c-0.5-0.7-0.9-1.5-1.2-2.3
	c-0.3-0.8-0.6-1.7-0.8-2.5c-0.2-0.9-0.3-1.7-0.3-2.6s0.1-1.8,0.3-2.6c0.2-0.9,0.4-1.7,0.8-2.5c0.3-0.8,0.8-1.6,1.2-2.3
	c0.5-0.7,1.1-1.4,1.7-2c0.6-0.6,1.3-1.2,2-1.7c0.7-0.5,1.5-0.9,2.3-1.2c0.8-0.3,1.7-0.6,2.5-0.8c0.9-0.2,1.7-0.3,2.6-0.3
	s1.8,0.1,2.6,0.3c0.9,0.2,1.7,0.4,2.5,0.8c0.8,0.3,1.6,0.8,2.3,1.2c0.7,0.5,1.4,1.1,2,1.7c0.6,0.6,1.2,1.3,1.7,2
	c0.5,0.7,0.9,1.5,1.2,2.3c0.3,0.8,0.6,1.7,0.8,2.5C283.4,308.7,283.5,309.6,283.5,310.5z"/>
<path class="st4" d="M553.5,310.5c0,0.9-0.1,1.8-0.3,2.6c-0.2,0.9-0.4,1.7-0.8,2.5c-0.3,0.8-0.8,1.6-1.2,2.3c-0.5,0.7-1.1,1.4-1.7,2
	c-0.6,0.6-1.3,1.2-2,1.7c-0.7,0.5-1.5,0.9-2.3,1.2c-0.8,0.3-1.7,0.6-2.5,0.8c-0.9,0.2-1.7,0.3-2.6,0.3s-1.8-0.1-2.6-0.3
	c-0.9-0.2-1.7-0.4-2.5-0.8c-0.8-0.3-1.6-0.8-2.3-1.2c-0.7-0.5-1.4-1.1-2-1.7c-0.6-0.6-1.2-1.3-1.7-2s-0.9-1.5-1.2-2.3
	c-0.3-0.8-0.6-1.7-0.8-2.5c-0.2-0.9-0.3-1.7-0.3-2.6s0.1-1.8,0.3-2.6c0.2-0.9,0.4-1.7,0.8-2.5c0.3-0.8,0.8-1.6,1.2-2.3
	s1.1-1.4,1.7-2c0.6-0.6,1.3-1.2,2-1.7c0.7-0.5,1.5-0.9,2.3-1.2c0.8-0.3,1.7-0.6,2.5-0.8c0.9-0.2,1.7-0.3,2.6-0.3s1.8,0.1,2.6,0.3
	c0.9,0.2,1.7,0.4,2.5,0.8c0.8,0.3,1.6,0.8,2.3,1.2c0.7,0.5,1.4,1.1,2,1.7c0.6,0.6,1.2,1.3,1.7,2c0.5,0.7,0.9,1.5,1.2,2.3
	c0.3,0.8,0.6,1.7,0.8,2.5C553.4,308.7,553.5,309.6,553.5,310.5z"/>
<path class="st5" d="M391.5,627.8l13.5-20.2l13.5,20.2V526.5h-27V627.8z"/>
<path class="st3" d="M405,553.5c2.1,0,4.2-0.1,6.3-0.4s4.2-0.6,6.2-1.1c2-0.5,4.1-1,6-1.7c2-0.7,3.9-1.5,5.8-2.4
	c1.9-0.9,3.7-1.9,5.5-3c1.8-1.1,3.5-2.3,5.1-3.6c1.6-1.3,3.2-2.7,4.7-4.2c1.5-1.5,2.9-3,4.2-4.7l29.4-36.8c2.5-3.1,4.4-6.6,5.7-10.4
	c1.3-3.8,2-7.7,2-11.7c0-2.3-0.2-4.6-0.7-6.9c-0.4-2.3-1.1-4.5-2-6.6c-0.9-2.1-2-4.2-3.3-6.1s-2.8-3.7-4.4-5.3l-1.5-1.5
	c-2.3-2.3-4.6-4.4-7.1-6.4c-2.5-2-5-3.9-7.7-5.7c-2.7-1.8-5.4-3.4-8.2-4.9c-2.8-1.5-5.7-2.9-8.7-4.1c-3-1.2-6-2.3-9-3.2
	c-3.1-0.9-6.2-1.7-9.3-2.3s-6.3-1.1-9.5-1.4c-3.2-0.3-6.4-0.5-9.6-0.5s-6.4,0.2-9.6,0.5c-3.2,0.3-6.4,0.8-9.5,1.4s-6.2,1.4-9.3,2.3
	c-3.1,0.9-6.1,2-9,3.2s-5.9,2.6-8.7,4.1c-2.8,1.5-5.6,3.2-8.2,4.9c-2.7,1.8-5.2,3.7-7.7,5.7c-2.5,2-4.8,4.2-7.1,6.4l-1.5,1.5
	c-1.6,1.6-3.1,3.4-4.4,5.3c-1.3,1.9-2.4,4-3.3,6.1s-1.6,4.3-2,6.6c-0.5,2.3-0.7,4.6-0.7,6.9c0,4,0.7,7.9,2,11.7
	c1.3,3.8,3.2,7.2,5.7,10.4l29.4,36.8c1.3,1.6,2.7,3.2,4.2,4.7c1.5,1.5,3.1,2.9,4.7,4.2c1.6,1.3,3.4,2.5,5.1,3.6
	c1.8,1.1,3.6,2.1,5.5,3c1.9,0.9,3.8,1.7,5.8,2.4c2,0.7,4,1.3,6,1.7c2,0.5,4.1,0.8,6.2,1.1S402.9,553.5,405,553.5z"/>
</svg>
