<?xml version="1.0" standalone="no"?>
<!DOCTYPE svg PUBLIC "-//W3C//DTD SVG 20010904//EN"
 "http://www.w3.org/TR/2001/REC-SVG-20010904/DTD/svg10.dtd">
<svg version="1.0" xmlns="http://www.w3.org/2000/svg"
 width="512.000000pt" height="512.000000pt" viewBox="0 0 512.000000 512.000000"
 preserveAspectRatio="xMidYMid meet">
<metadata>
Created by potrace 1.14, written by Peter Selinger 2001-2017
</metadata>
<g transform="translate(0.000000,512.000000) scale(0.100000,-0.100000)"
fill="#000000" stroke="none">
<path d="M1915 4484 c-180 -31 -286 -91 -489 -277 -17 -16 -51 -45 -75 -65
-25 -21 -57 -48 -71 -62 -89 -84 -169 -144 -245 -185 -126 -68 -215 -142 -293
-247 -41 -54 -514 -986 -553 -1087 -48 -128 -57 -302 -24 -432 9 -35 59 -161
112 -279 115 -259 127 -291 152 -400 20 -86 27 -144 36 -300 7 -137 54 -252
140 -348 118 -129 293 -189 550 -186 79 0 110 5 147 21 65 29 113 77 146 142
26 54 27 62 26 201 -1 131 -6 218 -18 305 -25 181 -64 355 -125 555 -57 191
-109 358 -117 380 -3 10 -2 11 4 5 16 -16 122 -175 122 -182 0 -4 6 -14 14
-22 15 -17 112 -207 141 -276 23 -55 55 -144 65 -180 42 -155 69 -268 74 -310
22 -163 49 -235 115 -304 107 -111 282 -130 462 -49 l67 30 40 -21 c151 -77
333 -77 500 2 l43 20 48 -26 c114 -62 277 -72 377 -23 96 47 172 144 188 241
3 17 10 59 15 95 11 69 13 76 30 155 38 171 118 386 203 545 67 128 216 353
194 295 -13 -35 -138 -437 -153 -495 -27 -100 -81 -364 -87 -430 -4 -36 -9
-78 -11 -95 -2 -16 -7 -99 -10 -182 -4 -135 -3 -159 14 -203 46 -120 146 -191
275 -195 128 -3 269 15 364 46 121 40 230 132 292 248 49 90 61 150 75 361 5
86 8 110 26 188 12 53 49 161 76 222 185 408 203 462 208 606 3 84 -12 186
-39 266 -23 66 -505 1023 -544 1081 -74 106 -162 180 -329 276 -59 34 -185
132 -248 194 -6 7 -38 35 -70 62 -33 28 -96 82 -141 122 -157 136 -311 202
-483 207 -51 2 -112 0 -135 -5 -22 -4 -59 -10 -81 -13 -22 -4 -76 -13 -120
-21 -227 -41 -224 -41 -463 -1 -246 42 -320 47 -417 30z"/>
</g>
</svg>
