<svg xmlns="http://www.w3.org/2000/svg" xmlns:xlink="http://www.w3.org/1999/xlink" width="810" height="810" preserveAspectRatio="xMidYMid meet" version="1.0" viewBox="0 0 810 810" zoomAndPan="magnify"><path fill="#8E8E8E" fill-opacity="1" fill-rule="nonzero" d="M 454.949219 673.175781 L 454.421875 673.527344 C 450.785156 675.953125 446.984375 678.101562 443.03125 679.964844 C 439.074219 681.832031 435.003906 683.402344 430.820312 684.667969 C 426.632812 685.9375 422.375 686.890625 418.050781 687.535156 C 413.722656 688.175781 409.375 688.496094 405 688.5 C 400.621094 688.5 396.269531 688.179688 391.9375 687.539062 C 387.609375 686.898438 383.347656 685.941406 379.160156 684.675781 C 374.96875 683.40625 370.898438 681.839844 366.9375 679.972656 C 362.980469 678.101562 359.179688 675.957031 355.535156 673.527344 L 355.007812 673.175781 L 405 607.5"/><path fill="#895442" fill-opacity="1" fill-rule="nonzero" d="M 405 94.5 L 333.613281 82.605469 C 327.191406 81.535156 320.738281 81 314.253906 81 C 310.722656 81 307.199219 81.15625 303.683594 81.476562 C 300.167969 81.792969 296.671875 82.265625 293.199219 82.894531 C 289.726562 83.527344 286.289062 84.3125 282.886719 85.253906 C 279.484375 86.195312 276.128906 87.285156 272.824219 88.527344 C 269.523438 89.769531 266.28125 91.15625 263.101562 92.6875 C 259.921875 94.222656 256.816406 95.894531 253.785156 97.707031 C 250.757812 99.519531 247.816406 101.464844 244.960938 103.542969 C 242.105469 105.621094 239.351562 107.820312 236.695312 110.148438 L 174.59375 164.457031 C 166.175781 171.820312 156.964844 178.003906 146.960938 183.007812 C 140.675781 186.148438 134.679688 189.773438 128.976562 193.882812 C 123.277344 197.988281 117.941406 202.527344 112.972656 207.5 C 108 212.46875 103.460938 217.804688 99.355469 223.503906 C 95.246094 229.207031 91.621094 235.203125 88.480469 241.488281 L 12.71875 393.066406 C 8.535156 401.4375 5.371094 410.171875 3.222656 419.269531 C 1.074219 428.367188 0 437.589844 0 446.929688 C 0 455.359375 0.875 463.695312 2.625 471.9375 C 4.371094 480.179688 6.957031 488.152344 10.382812 495.855469 L 36.140625 553.824219 C 42.027344 567.074219 46.476562 580.789062 49.484375 594.964844 C 52.496094 609.144531 54 623.480469 54 637.96875 C 54 644.660156 54.65625 651.28125 55.972656 657.839844 C 56.390625 659.945312 56.890625 662.03125 57.46875 664.097656 C 58.050781 666.164062 58.707031 668.207031 59.4375 670.226562 C 60.171875 672.242188 60.980469 674.230469 61.863281 676.183594 C 62.746094 678.140625 63.703125 680.0625 64.730469 681.945312 C 65.757812 683.828125 66.855469 685.671875 68.023438 687.472656 C 69.191406 689.273438 70.425781 691.027344 71.726562 692.734375 C 73.027344 694.441406 74.390625 696.097656 75.8125 697.703125 C 77.238281 699.308594 78.722656 700.855469 80.265625 702.351562 C 81.808594 703.84375 83.40625 705.273438 85.054688 706.644531 C 86.707031 708.019531 88.40625 709.324219 90.15625 710.570312 C 91.90625 711.8125 93.699219 712.988281 95.539062 714.09375 C 97.375 715.203125 99.253906 716.238281 101.171875 717.207031 C 103.085938 718.171875 105.039062 719.0625 107.023438 719.882812 C 109.007812 720.699219 111.019531 721.441406 113.058594 722.109375 C 115.097656 722.773438 117.160156 723.363281 119.246094 723.875 C 121.332031 724.382812 123.433594 724.8125 125.550781 725.164062 L 125.929688 725.164062 C 140.996094 727.699219 156.171875 728.980469 171.449219 729 C 172.910156 729 174.363281 728.929688 175.816406 728.785156 C 177.269531 728.640625 178.710938 728.429688 180.140625 728.144531 C 181.574219 727.859375 182.984375 727.503906 184.382812 727.082031 C 185.777344 726.65625 187.152344 726.167969 188.5 725.609375 C 189.847656 725.050781 191.164062 724.425781 192.449219 723.738281 C 193.738281 723.050781 194.988281 722.300781 196.199219 721.492188 C 197.414062 720.679688 198.585938 719.8125 199.710938 718.886719 C 200.839844 717.960938 201.917969 716.984375 202.953125 715.953125 C 203.984375 714.917969 204.960938 713.839844 205.886719 712.710938 C 206.8125 711.585938 207.679688 710.414062 208.492188 709.199219 C 209.300781 707.988281 210.050781 706.738281 210.738281 705.449219 C 211.425781 704.164062 212.050781 702.847656 212.609375 701.5 C 213.167969 700.152344 213.65625 698.777344 214.082031 697.382812 C 214.503906 695.984375 214.859375 694.574219 215.144531 693.140625 C 215.429688 691.710938 215.640625 690.269531 215.785156 688.816406 C 215.929688 687.363281 216 685.910156 216 684.449219 C 216 658.953125 214.105469 633.597656 210.3125 608.382812 C 206.519531 583.167969 200.875 558.375 193.375 534.007812 L 162 432 L 180.792969 457.054688 C 190.941406 470.585938 200.171875 484.71875 208.484375 499.449219 C 216.792969 514.179688 224.117188 529.386719 230.453125 545.070312 C 236.789062 560.753906 242.085938 576.78125 246.335938 593.152344 C 250.589844 609.523438 253.765625 626.101562 255.867188 642.882812 C 256.285156 646.292969 257.039062 649.628906 258.132812 652.886719 C 258.5625 654.171875 259.039062 655.441406 259.566406 656.691406 C 260.09375 657.9375 260.667969 659.164062 261.292969 660.371094 C 261.914062 661.574219 262.582031 662.75 263.296875 663.902344 C 264.011719 665.054688 264.773438 666.175781 265.574219 667.269531 C 266.378906 668.363281 267.222656 669.421875 268.109375 670.449219 C 268.992188 671.472656 269.917969 672.464844 270.878906 673.417969 C 271.84375 674.371094 272.84375 675.289062 273.878906 676.164062 C 274.910156 677.039062 275.980469 677.875 277.078125 678.667969 C 278.179688 679.460938 279.308594 680.210938 280.464844 680.914062 C 281.625 681.621094 282.808594 682.277344 284.019531 682.890625 C 285.226562 683.503906 286.460938 684.066406 287.714844 684.582031 C 288.96875 685.097656 290.238281 685.566406 291.53125 685.980469 C 292.820312 686.398438 294.125 686.761719 295.445312 687.078125 C 296.761719 687.394531 298.089844 687.65625 299.429688 687.867188 C 300.769531 688.078125 302.117188 688.234375 303.46875 688.339844 C 304.820312 688.445312 306.175781 688.5 307.53125 688.5 C 310.859375 688.5 314.179688 688.296875 317.484375 687.890625 C 320.789062 687.480469 324.054688 686.871094 327.285156 686.0625 C 330.515625 685.253906 333.683594 684.25 336.792969 683.050781 C 339.898438 681.847656 342.921875 680.464844 345.855469 678.890625 C 348.792969 677.320312 351.621094 675.574219 354.34375 673.65625 C 357.0625 671.738281 359.65625 669.65625 362.125 667.417969 C 364.589844 665.179688 366.910156 662.800781 369.082031 660.277344 C 371.253906 657.753906 373.265625 655.105469 375.109375 652.332031 L 405 607.5 L 434.890625 652.332031 C 436.734375 655.105469 438.746094 657.75 440.917969 660.273438 C 443.089844 662.796875 445.40625 665.179688 447.871094 667.417969 C 450.335938 669.65625 452.929688 671.734375 455.652344 673.652344 C 458.375 675.574219 461.203125 677.316406 464.136719 678.890625 C 467.074219 680.460938 470.097656 681.847656 473.203125 683.046875 C 476.308594 684.246094 479.480469 685.25 482.710938 686.0625 C 485.941406 686.871094 489.207031 687.480469 492.515625 687.886719 C 495.820312 688.296875 499.140625 688.5 502.46875 688.5 C 503.824219 688.5 505.179688 688.449219 506.53125 688.34375 C 507.882812 688.234375 509.226562 688.078125 510.566406 687.867188 C 511.90625 687.65625 513.234375 687.394531 514.554688 687.078125 C 515.875 686.765625 517.179688 686.398438 518.46875 685.984375 C 519.757812 685.566406 521.03125 685.101562 522.285156 684.582031 C 523.539062 684.066406 524.769531 683.503906 525.980469 682.890625 C 527.191406 682.28125 528.375 681.621094 529.53125 680.917969 C 530.691406 680.210938 531.820312 679.464844 532.917969 678.671875 C 534.019531 677.878906 535.085938 677.042969 536.121094 676.167969 C 537.15625 675.289062 538.152344 674.375 539.117188 673.421875 C 540.082031 672.464844 541.003906 671.476562 541.890625 670.449219 C 542.777344 669.421875 543.621094 668.363281 544.421875 667.269531 C 545.226562 666.179688 545.984375 665.054688 546.699219 663.902344 C 547.414062 662.753906 548.085938 661.574219 548.707031 660.371094 C 549.332031 659.164062 549.90625 657.9375 550.433594 656.691406 C 550.960938 655.441406 551.4375 654.171875 551.867188 652.886719 C 552.960938 649.628906 553.714844 646.292969 554.132812 642.882812 C 556.234375 626.101562 559.410156 609.523438 563.664062 593.152344 C 567.914062 576.78125 573.210938 560.753906 579.546875 545.070312 C 585.882812 529.386719 593.207031 514.179688 601.515625 499.449219 C 609.828125 484.71875 619.058594 470.585938 629.207031 457.054688 L 648 432 L 616.625 533.980469 C 609.125 558.347656 603.480469 583.140625 599.6875 608.359375 C 595.894531 633.578125 594 658.941406 594 684.449219 C 594 685.910156 594.070312 687.363281 594.214844 688.816406 C 594.359375 690.269531 594.570312 691.710938 594.855469 693.140625 C 595.140625 694.574219 595.496094 695.984375 595.917969 697.382812 C 596.34375 698.777344 596.832031 700.152344 597.390625 701.5 C 597.949219 702.847656 598.574219 704.164062 599.261719 705.449219 C 599.949219 706.738281 600.699219 707.988281 601.507812 709.199219 C 602.320312 710.414062 603.1875 711.585938 604.113281 712.710938 C 605.039062 713.839844 606.015625 714.917969 607.046875 715.953125 C 608.078125 716.984375 609.160156 717.960938 610.289062 718.886719 C 611.414062 719.8125 612.585938 720.679688 613.800781 721.492188 C 615.011719 722.300781 616.261719 723.050781 617.550781 723.738281 C 618.835938 724.425781 620.152344 725.050781 621.5 725.609375 C 622.847656 726.167969 624.222656 726.65625 625.617188 727.082031 C 627.015625 727.503906 628.425781 727.859375 629.859375 728.144531 C 631.289062 728.429688 632.730469 728.640625 634.183594 728.785156 C 635.636719 728.929688 637.089844 729 638.550781 729 C 653.832031 729 669.011719 727.746094 684.085938 725.234375 L 684.464844 725.234375 C 686.578125 724.882812 688.679688 724.449219 690.765625 723.9375 C 692.847656 723.425781 694.910156 722.839844 696.949219 722.171875 C 698.988281 721.503906 701 720.761719 702.980469 719.941406 C 704.964844 719.125 706.914062 718.230469 708.832031 717.265625 C 710.746094 716.296875 712.621094 715.261719 714.460938 714.152344 C 716.296875 713.046875 718.089844 711.871094 719.839844 710.625 C 721.585938 709.382812 723.285156 708.074219 724.9375 706.703125 C 726.585938 705.332031 728.183594 703.898438 729.722656 702.40625 C 731.265625 700.914062 732.746094 699.367188 734.171875 697.761719 C 735.597656 696.15625 736.957031 694.5 738.257812 692.792969 C 739.558594 691.085938 740.789062 689.332031 741.957031 687.53125 C 743.125 685.730469 744.222656 683.890625 745.25 682.003906 C 746.277344 680.121094 747.230469 678.203125 748.113281 676.246094 C 748.996094 674.292969 749.804688 672.304688 750.539062 670.289062 C 751.269531 668.273438 751.925781 666.230469 752.503906 664.164062 C 753.082031 662.097656 753.582031 660.011719 754.003906 657.910156 C 755.328125 651.328125 755.996094 644.683594 756 637.96875 C 756 623.476562 757.507812 609.136719 760.515625 594.960938 C 763.523438 580.78125 767.972656 567.070312 773.859375 553.824219 L 799.617188 495.855469 C 803.039062 488.15625 805.625 480.183594 807.375 471.9375 C 809.125 463.695312 810 455.359375 810 446.929688 C 810 437.582031 808.921875 428.359375 806.773438 419.257812 C 804.628906 410.160156 801.464844 401.429688 797.28125 393.066406 L 721.492188 241.488281 C 718.351562 235.203125 714.726562 229.207031 710.617188 223.503906 C 706.511719 217.804688 701.972656 212.46875 697 207.5 C 692.03125 202.527344 686.695312 197.988281 680.996094 193.882812 C 675.292969 189.773438 669.296875 186.148438 663.011719 183.007812 C 653.007812 178.003906 643.796875 171.820312 635.378906 164.457031 L 573.277344 110.148438 C 570.621094 107.820312 567.863281 105.621094 565.011719 103.542969 C 562.15625 101.464844 559.214844 99.519531 556.183594 97.707031 C 553.15625 95.894531 550.050781 94.222656 546.871094 92.691406 C 543.695312 91.15625 540.453125 89.769531 537.148438 88.527344 C 533.847656 87.285156 530.492188 86.195312 527.09375 85.253906 C 523.691406 84.3125 520.257812 83.527344 516.785156 82.898438 C 513.3125 82.265625 509.820312 81.792969 506.308594 81.476562 C 502.792969 81.160156 499.273438 81 495.746094 81 C 489.25 81 482.796875 81.535156 476.386719 82.605469 Z M 405 94.5"/><path fill="#E2E2E2" fill-opacity="1" fill-rule="nonzero" d="M 521.464844 418.59375 C 520.09375 414.21875 518.394531 409.972656 516.363281 405.863281 C 514.328125 401.75 511.988281 397.820312 509.34375 394.074219 C 506.695312 390.332031 503.773438 386.8125 500.578125 383.523438 C 497.382812 380.234375 493.949219 377.214844 490.28125 374.464844 C 487.824219 372.621094 485.472656 370.65625 483.222656 368.570312 C 480.972656 366.480469 478.839844 364.28125 476.820312 361.96875 C 474.800781 359.65625 472.90625 357.246094 471.140625 354.738281 C 469.371094 352.230469 467.742188 349.632812 466.246094 346.953125 C 464.75 344.273438 463.398438 341.523438 462.191406 338.699219 C 460.984375 335.878906 459.929688 333 459.023438 330.070312 C 458.117188 327.136719 457.367188 324.164062 456.773438 321.152344 C 456.175781 318.144531 455.742188 315.109375 455.464844 312.050781 L 449.171875 242.839844 C 449.050781 241.472656 448.867188 240.117188 448.617188 238.769531 C 448.371094 237.421875 448.0625 236.089844 447.691406 234.769531 C 447.320312 233.453125 446.886719 232.152344 446.398438 230.875 C 445.90625 229.59375 445.355469 228.339844 444.75 227.113281 C 444.140625 225.886719 443.476562 224.6875 442.757812 223.523438 C 442.042969 222.355469 441.269531 221.222656 440.445312 220.128906 C 439.625 219.035156 438.75 217.980469 437.832031 216.964844 C 436.910156 215.953125 435.945312 214.980469 434.933594 214.058594 C 433.921875 213.132812 432.871094 212.257812 431.777344 211.429688 C 430.6875 210.601562 429.558594 209.828125 428.394531 209.105469 C 427.230469 208.382812 426.035156 207.714844 424.808594 207.101562 C 423.582031 206.488281 422.332031 205.9375 421.054688 205.441406 C 419.777344 204.945312 418.480469 204.507812 417.164062 204.132812 C 415.847656 203.757812 414.515625 203.441406 413.167969 203.191406 C 411.820312 202.9375 410.464844 202.75 409.101562 202.621094 C 407.738281 202.496094 406.371094 202.433594 405 202.433594 C 403.628906 202.433594 402.261719 202.496094 400.898438 202.621094 C 399.535156 202.75 398.179688 202.9375 396.832031 203.191406 C 395.484375 203.441406 394.152344 203.757812 392.835938 204.132812 C 391.519531 204.507812 390.222656 204.945312 388.945312 205.441406 C 387.667969 205.9375 386.417969 206.488281 385.191406 207.101562 C 383.964844 207.714844 382.769531 208.382812 381.605469 209.105469 C 380.441406 209.828125 379.3125 210.601562 378.222656 211.429688 C 377.128906 212.257812 376.078125 213.132812 375.066406 214.058594 C 374.054688 214.980469 373.089844 215.953125 372.167969 216.964844 C 371.25 217.980469 370.375 219.035156 369.554688 220.128906 C 368.730469 221.222656 367.957031 222.355469 367.242188 223.523438 C 366.523438 224.6875 365.859375 225.886719 365.25 227.113281 C 364.644531 228.339844 364.09375 229.59375 363.601562 230.875 C 363.113281 232.152344 362.679688 233.453125 362.308594 234.769531 C 361.9375 236.089844 361.628906 237.421875 361.382812 238.769531 C 361.132812 240.117188 360.949219 241.472656 360.828125 242.839844 L 354.535156 312.050781 C 354.257812 315.109375 353.824219 318.144531 353.230469 321.152344 C 352.632812 324.164062 351.882812 327.136719 350.976562 330.070312 C 350.070312 333 349.015625 335.878906 347.808594 338.699219 C 346.601562 341.523438 345.25 344.273438 343.753906 346.953125 C 342.257812 349.632812 340.628906 352.230469 338.859375 354.738281 C 337.09375 357.246094 335.199219 359.660156 333.179688 361.96875 C 331.160156 364.28125 329.027344 366.480469 326.777344 368.570312 C 324.527344 370.65625 322.175781 372.621094 319.71875 374.464844 C 316.050781 377.214844 312.617188 380.234375 309.421875 383.523438 C 306.226562 386.8125 303.304688 390.332031 300.65625 394.074219 C 298.011719 397.820312 295.671875 401.75 293.636719 405.863281 C 291.605469 409.972656 289.90625 414.21875 288.535156 418.59375 L 240.394531 572.628906 L 240.394531 572.84375 C 247.714844 595.714844 252.886719 619.0625 255.90625 642.882812 C 256.324219 646.292969 257.078125 649.628906 258.175781 652.886719 C 258.601562 654.171875 259.078125 655.441406 259.605469 656.6875 C 260.132812 657.9375 260.707031 659.160156 261.332031 660.367188 C 261.953125 661.570312 262.621094 662.746094 263.335938 663.898438 C 264.050781 665.046875 264.808594 666.171875 265.613281 667.261719 C 266.414062 668.355469 267.257812 669.414062 268.140625 670.4375 C 269.027344 671.464844 269.949219 672.457031 270.914062 673.410156 C 271.875 674.363281 272.871094 675.277344 273.90625 676.15625 C 274.941406 677.03125 276.007812 677.867188 277.105469 678.65625 C 278.203125 679.449219 279.332031 680.199219 280.488281 680.90625 C 281.644531 681.609375 282.828125 682.269531 284.039062 682.878906 C 285.246094 683.492188 286.476562 684.058594 287.730469 684.574219 C 288.984375 685.089844 290.253906 685.554688 291.542969 685.972656 C 292.832031 686.390625 294.136719 686.757812 295.453125 687.070312 C 296.769531 687.386719 298.097656 687.648438 299.4375 687.863281 C 300.777344 688.074219 302.121094 688.230469 303.472656 688.339844 C 304.820312 688.445312 306.175781 688.5 307.53125 688.5 C 310.859375 688.5 314.179688 688.296875 317.484375 687.890625 C 320.789062 687.480469 324.054688 686.871094 327.285156 686.0625 C 330.515625 685.253906 333.683594 684.25 336.792969 683.050781 C 339.898438 681.847656 342.921875 680.464844 345.855469 678.890625 C 348.792969 677.320312 351.621094 675.574219 354.34375 673.65625 C 357.0625 671.738281 359.65625 669.65625 362.125 667.417969 C 364.589844 665.179688 366.910156 662.800781 369.082031 660.277344 C 371.253906 657.753906 373.265625 655.105469 375.109375 652.332031 L 405 607.5 L 434.890625 652.332031 C 436.734375 655.105469 438.746094 657.75 440.917969 660.273438 C 443.089844 662.796875 445.40625 665.179688 447.871094 667.417969 C 450.335938 669.65625 452.929688 671.734375 455.652344 673.652344 C 458.375 675.574219 461.203125 677.316406 464.136719 678.890625 C 467.074219 680.460938 470.097656 681.847656 473.203125 683.046875 C 476.308594 684.246094 479.480469 685.25 482.710938 686.0625 C 485.941406 686.871094 489.207031 687.480469 492.515625 687.886719 C 495.820312 688.296875 499.140625 688.5 502.46875 688.5 C 503.824219 688.5 505.179688 688.449219 506.53125 688.34375 C 507.882812 688.234375 509.226562 688.078125 510.566406 687.867188 C 511.90625 687.65625 513.234375 687.394531 514.554688 687.078125 C 515.875 686.765625 517.179688 686.398438 518.46875 685.984375 C 519.757812 685.566406 521.03125 685.101562 522.285156 684.582031 C 523.539062 684.066406 524.769531 683.503906 525.980469 682.890625 C 527.191406 682.28125 528.375 681.621094 529.53125 680.917969 C 530.691406 680.210938 531.820312 679.464844 532.917969 678.671875 C 534.019531 677.878906 535.085938 677.042969 536.121094 676.167969 C 537.15625 675.289062 538.152344 674.375 539.117188 673.421875 C 540.082031 672.464844 541.003906 671.476562 541.890625 670.449219 C 542.777344 669.421875 543.621094 668.363281 544.421875 667.269531 C 545.226562 666.179688 545.984375 665.054688 546.699219 663.902344 C 547.414062 662.753906 548.085938 661.574219 548.707031 660.371094 C 549.332031 659.164062 549.90625 657.9375 550.433594 656.691406 C 550.960938 655.441406 551.4375 654.171875 551.867188 652.886719 C 552.960938 649.628906 553.714844 646.292969 554.132812 642.882812 C 557.171875 619.058594 562.359375 595.714844 569.699219 572.84375 L 569.699219 572.628906 Z M 521.464844 418.59375"/><path fill="#5A361F" fill-opacity="1" fill-rule="nonzero" d="M 175.5 432 L 148.5 432 C 148.476562 413.773438 149.410156 395.597656 151.300781 377.46875 C 153.1875 359.339844 156.027344 341.363281 159.808594 323.53125 C 163.59375 305.703125 168.300781 288.121094 173.933594 270.789062 C 179.570312 253.457031 186.097656 236.464844 193.523438 219.820312 L 203.660156 197.019531 L 228.339844 207.980469 L 218.199219 230.796875 C 211.160156 246.582031 204.96875 262.691406 199.621094 279.128906 C 194.277344 295.5625 189.8125 312.234375 186.222656 329.144531 C 182.636719 346.050781 179.945312 363.097656 178.152344 380.289062 C 176.363281 397.480469 175.476562 414.714844 175.5 432 Z M 175.5 432"/><path fill="#5A361F" fill-opacity="1" fill-rule="nonzero" d="M 661.5 432 L 634.5 432 C 634.519531 414.722656 633.636719 397.488281 631.84375 380.304688 C 630.046875 363.117188 627.359375 346.074219 623.769531 329.171875 C 620.183594 312.269531 615.714844 295.601562 610.371094 279.167969 C 605.03125 262.738281 598.839844 246.628906 591.800781 230.851562 L 581.660156 208.035156 L 606.339844 197.074219 L 616.476562 219.875 C 623.898438 236.515625 630.425781 253.5 636.058594 270.832031 C 641.695312 288.160156 646.402344 305.734375 650.1875 323.5625 C 653.96875 341.386719 656.804688 359.359375 658.695312 377.484375 C 660.585938 395.605469 661.523438 413.777344 661.5 432 Z M 661.5 432"/><path fill="#353535" fill-opacity="1" fill-rule="nonzero" d="M 297 310.5 C 297 311.382812 296.957031 312.265625 296.871094 313.148438 C 296.785156 314.027344 296.652344 314.898438 296.480469 315.765625 C 296.308594 316.632812 296.09375 317.492188 295.835938 318.335938 C 295.582031 319.183594 295.28125 320.015625 294.945312 320.832031 C 294.605469 321.648438 294.230469 322.449219 293.8125 323.226562 C 293.394531 324.007812 292.941406 324.765625 292.449219 325.5 C 291.957031 326.234375 291.433594 326.945312 290.871094 327.628906 C 290.308594 328.3125 289.71875 328.964844 289.09375 329.59375 C 288.464844 330.21875 287.8125 330.808594 287.128906 331.371094 C 286.445312 331.933594 285.734375 332.457031 285 332.949219 C 284.265625 333.441406 283.507812 333.894531 282.726562 334.3125 C 281.949219 334.730469 281.148438 335.105469 280.332031 335.445312 C 279.515625 335.78125 278.683594 336.082031 277.835938 336.335938 C 276.992188 336.59375 276.132812 336.808594 275.265625 336.980469 C 274.398438 337.152344 273.527344 337.285156 272.644531 337.371094 C 271.765625 337.457031 270.882812 337.5 270 337.5 C 269.117188 337.5 268.234375 337.457031 267.355469 337.371094 C 266.472656 337.285156 265.601562 337.152344 264.734375 336.980469 C 263.867188 336.808594 263.007812 336.59375 262.164062 336.335938 C 261.316406 336.082031 260.484375 335.78125 259.667969 335.445312 C 258.851562 335.105469 258.050781 334.730469 257.273438 334.3125 C 256.492188 333.894531 255.734375 333.441406 255 332.949219 C 254.265625 332.457031 253.554688 331.933594 252.871094 331.371094 C 252.1875 330.808594 251.535156 330.21875 250.90625 329.59375 C 250.28125 328.964844 249.691406 328.3125 249.128906 327.628906 C 248.566406 326.945312 248.042969 326.234375 247.550781 325.5 C 247.058594 324.765625 246.605469 324.007812 246.1875 323.226562 C 245.769531 322.449219 245.394531 321.648438 245.054688 320.832031 C 244.71875 320.015625 244.417969 319.183594 244.164062 318.335938 C 243.90625 317.492188 243.691406 316.632812 243.519531 315.765625 C 243.347656 314.898438 243.214844 314.027344 243.128906 313.148438 C 243.042969 312.265625 243 311.382812 243 310.5 C 243 309.617188 243.042969 308.734375 243.128906 307.855469 C 243.214844 306.972656 243.347656 306.101562 243.519531 305.234375 C 243.691406 304.367188 243.90625 303.507812 244.164062 302.664062 C 244.417969 301.816406 244.71875 300.984375 245.054688 300.167969 C 245.394531 299.351562 245.769531 298.550781 246.1875 297.773438 C 246.605469 296.992188 247.058594 296.234375 247.550781 295.5 C 248.042969 294.765625 248.566406 294.054688 249.128906 293.371094 C 249.691406 292.6875 250.28125 292.035156 250.90625 291.40625 C 251.535156 290.78125 252.1875 290.191406 252.871094 289.628906 C 253.554688 289.066406 254.265625 288.542969 255 288.050781 C 255.734375 287.558594 256.492188 287.105469 257.273438 286.6875 C 258.050781 286.269531 258.851562 285.894531 259.667969 285.554688 C 260.484375 285.21875 261.316406 284.917969 262.164062 284.664062 C 263.007812 284.40625 263.867188 284.191406 264.734375 284.019531 C 265.601562 283.847656 266.472656 283.714844 267.355469 283.628906 C 268.234375 283.542969 269.117188 283.5 270 283.5 C 270.882812 283.5 271.765625 283.542969 272.644531 283.628906 C 273.527344 283.714844 274.398438 283.847656 275.265625 284.019531 C 276.132812 284.191406 276.992188 284.40625 277.835938 284.664062 C 278.683594 284.917969 279.515625 285.21875 280.332031 285.554688 C 281.148438 285.894531 281.949219 286.269531 282.726562 286.6875 C 283.507812 287.105469 284.265625 287.558594 285 288.050781 C 285.734375 288.542969 286.445312 289.066406 287.128906 289.628906 C 287.8125 290.191406 288.464844 290.78125 289.09375 291.40625 C 289.71875 292.035156 290.308594 292.6875 290.871094 293.371094 C 291.433594 294.054688 291.957031 294.765625 292.449219 295.5 C 292.941406 296.234375 293.394531 296.992188 293.8125 297.773438 C 294.230469 298.550781 294.605469 299.351562 294.945312 300.167969 C 295.28125 300.984375 295.582031 301.816406 295.835938 302.664062 C 296.09375 303.507812 296.308594 304.367188 296.480469 305.234375 C 296.652344 306.101562 296.785156 306.972656 296.871094 307.855469 C 296.957031 308.734375 297 309.617188 297 310.5 Z M 297 310.5"/><path fill="#353535" fill-opacity="1" fill-rule="nonzero" d="M 567 310.5 C 567 311.382812 566.957031 312.265625 566.871094 313.148438 C 566.785156 314.027344 566.652344 314.898438 566.480469 315.765625 C 566.308594 316.632812 566.09375 317.492188 565.835938 318.335938 C 565.582031 319.183594 565.28125 320.015625 564.945312 320.832031 C 564.605469 321.648438 564.230469 322.449219 563.8125 323.226562 C 563.394531 324.007812 562.941406 324.765625 562.449219 325.5 C 561.957031 326.234375 561.433594 326.945312 560.871094 327.628906 C 560.308594 328.3125 559.71875 328.964844 559.09375 329.59375 C 558.464844 330.21875 557.8125 330.808594 557.128906 331.371094 C 556.445312 331.933594 555.734375 332.457031 555 332.949219 C 554.265625 333.441406 553.507812 333.894531 552.726562 334.3125 C 551.949219 334.730469 551.148438 335.105469 550.332031 335.445312 C 549.515625 335.78125 548.683594 336.082031 547.835938 336.335938 C 546.992188 336.59375 546.132812 336.808594 545.265625 336.980469 C 544.398438 337.152344 543.527344 337.285156 542.644531 337.371094 C 541.765625 337.457031 540.882812 337.5 540 337.5 C 539.117188 337.5 538.234375 337.457031 537.351562 337.371094 C 536.472656 337.285156 535.601562 337.152344 534.734375 336.980469 C 533.863281 336.808594 533.007812 336.59375 532.164062 336.335938 C 531.316406 336.082031 530.484375 335.78125 529.667969 335.445312 C 528.851562 335.105469 528.050781 334.730469 527.273438 334.3125 C 526.492188 333.894531 525.734375 333.441406 525 332.949219 C 524.265625 332.457031 523.554688 331.933594 522.871094 331.371094 C 522.1875 330.808594 521.535156 330.21875 520.90625 329.59375 C 520.28125 328.964844 519.691406 328.3125 519.128906 327.628906 C 518.566406 326.945312 518.042969 326.234375 517.550781 325.5 C 517.058594 324.765625 516.605469 324.007812 516.1875 323.226562 C 515.769531 322.449219 515.394531 321.648438 515.054688 320.832031 C 514.714844 320.015625 514.417969 319.183594 514.164062 318.335938 C 513.90625 317.492188 513.691406 316.632812 513.519531 315.765625 C 513.347656 314.898438 513.214844 314.027344 513.128906 313.148438 C 513.042969 312.265625 513 311.382812 513 310.5 C 513 309.617188 513.042969 308.734375 513.128906 307.855469 C 513.214844 306.972656 513.347656 306.101562 513.519531 305.234375 C 513.691406 304.367188 513.90625 303.507812 514.164062 302.664062 C 514.417969 301.816406 514.714844 300.984375 515.054688 300.167969 C 515.394531 299.351562 515.769531 298.550781 516.1875 297.773438 C 516.605469 296.992188 517.058594 296.234375 517.550781 295.5 C 518.042969 294.765625 518.566406 294.054688 519.128906 293.371094 C 519.691406 292.6875 520.28125 292.035156 520.90625 291.40625 C 521.535156 290.78125 522.1875 290.191406 522.871094 289.628906 C 523.554688 289.066406 524.265625 288.542969 525 288.050781 C 525.734375 287.558594 526.492188 287.105469 527.273438 286.6875 C 528.050781 286.269531 528.851562 285.894531 529.667969 285.554688 C 530.484375 285.21875 531.316406 284.917969 532.164062 284.664062 C 533.007812 284.40625 533.863281 284.191406 534.734375 284.019531 C 535.601562 283.847656 536.472656 283.714844 537.351562 283.628906 C 538.234375 283.542969 539.117188 283.5 540 283.5 C 540.882812 283.5 541.765625 283.542969 542.644531 283.628906 C 543.527344 283.714844 544.398438 283.847656 545.265625 284.019531 C 546.132812 284.191406 546.992188 284.40625 547.835938 284.664062 C 548.683594 284.917969 549.515625 285.21875 550.332031 285.554688 C 551.148438 285.894531 551.949219 286.269531 552.726562 286.6875 C 553.507812 287.105469 554.265625 287.558594 555 288.050781 C 555.734375 288.542969 556.445312 289.066406 557.128906 289.628906 C 557.8125 290.191406 558.464844 290.78125 559.09375 291.40625 C 559.71875 292.035156 560.308594 292.6875 560.871094 293.371094 C 561.433594 294.054688 561.957031 294.765625 562.449219 295.5 C 562.941406 296.234375 563.394531 296.992188 563.8125 297.773438 C 564.230469 298.550781 564.605469 299.351562 564.945312 300.167969 C 565.28125 300.984375 565.582031 301.816406 565.835938 302.664062 C 566.09375 303.507812 566.308594 304.367188 566.480469 305.234375 C 566.652344 306.101562 566.785156 306.972656 566.871094 307.855469 C 566.957031 308.734375 567 309.617188 567 310.5 Z M 567 310.5"/><path fill="#CECECE" fill-opacity="1" fill-rule="nonzero" d="M 283.5 297 C 283.5 297.886719 283.414062 298.765625 283.242188 299.632812 C 283.066406 300.503906 282.8125 301.347656 282.472656 302.167969 C 282.132812 302.984375 281.71875 303.761719 281.226562 304.5 C 280.730469 305.238281 280.171875 305.917969 279.546875 306.546875 C 278.917969 307.171875 278.238281 307.730469 277.5 308.226562 C 276.761719 308.71875 275.984375 309.132812 275.167969 309.472656 C 274.347656 309.8125 273.503906 310.066406 272.632812 310.242188 C 271.765625 310.414062 270.886719 310.5 270 310.5 C 269.113281 310.5 268.234375 310.414062 267.367188 310.242188 C 266.496094 310.066406 265.652344 309.8125 264.832031 309.472656 C 264.015625 309.132812 263.238281 308.71875 262.5 308.226562 C 261.761719 307.730469 261.082031 307.171875 260.453125 306.546875 C 259.828125 305.917969 259.269531 305.238281 258.773438 304.5 C 258.28125 303.761719 257.867188 302.984375 257.527344 302.167969 C 257.1875 301.347656 256.933594 300.503906 256.757812 299.632812 C 256.585938 298.765625 256.5 297.886719 256.5 297 C 256.5 296.113281 256.585938 295.234375 256.757812 294.367188 C 256.933594 293.496094 257.1875 292.652344 257.527344 291.832031 C 257.867188 291.015625 258.28125 290.238281 258.773438 289.5 C 259.269531 288.761719 259.828125 288.082031 260.453125 287.453125 C 261.082031 286.828125 261.761719 286.269531 262.5 285.773438 C 263.238281 285.28125 264.015625 284.867188 264.832031 284.527344 C 265.652344 284.1875 266.496094 283.933594 267.367188 283.757812 C 268.234375 283.585938 269.113281 283.5 270 283.5 C 270.886719 283.5 271.765625 283.585938 272.632812 283.757812 C 273.503906 283.933594 274.347656 284.1875 275.167969 284.527344 C 275.984375 284.867188 276.761719 285.28125 277.5 285.773438 C 278.238281 286.269531 278.917969 286.828125 279.546875 287.453125 C 280.171875 288.082031 280.730469 288.761719 281.226562 289.5 C 281.71875 290.238281 282.132812 291.015625 282.472656 291.832031 C 282.8125 292.652344 283.066406 293.496094 283.242188 294.367188 C 283.414062 295.234375 283.5 296.113281 283.5 297 Z M 283.5 297"/><path fill="#CECECE" fill-opacity="1" fill-rule="nonzero" d="M 553.5 297 C 553.5 297.886719 553.414062 298.765625 553.242188 299.632812 C 553.066406 300.503906 552.8125 301.347656 552.472656 302.167969 C 552.132812 302.984375 551.71875 303.761719 551.226562 304.5 C 550.730469 305.238281 550.171875 305.917969 549.546875 306.546875 C 548.917969 307.171875 548.238281 307.730469 547.5 308.226562 C 546.761719 308.71875 545.984375 309.132812 545.167969 309.472656 C 544.347656 309.8125 543.503906 310.066406 542.632812 310.242188 C 541.765625 310.414062 540.886719 310.5 540 310.5 C 539.113281 310.5 538.234375 310.414062 537.367188 310.242188 C 536.496094 310.066406 535.652344 309.8125 534.832031 309.472656 C 534.015625 309.132812 533.238281 308.71875 532.5 308.226562 C 531.761719 307.730469 531.082031 307.171875 530.453125 306.546875 C 529.828125 305.917969 529.265625 305.238281 528.773438 304.5 C 528.28125 303.761719 527.867188 302.984375 527.527344 302.167969 C 527.1875 301.347656 526.933594 300.503906 526.757812 299.632812 C 526.585938 298.765625 526.5 297.886719 526.5 297 C 526.5 296.113281 526.585938 295.234375 526.757812 294.367188 C 526.933594 293.496094 527.1875 292.652344 527.527344 291.832031 C 527.867188 291.015625 528.28125 290.238281 528.773438 289.5 C 529.265625 288.761719 529.828125 288.082031 530.453125 287.453125 C 531.082031 286.828125 531.761719 286.269531 532.5 285.773438 C 533.238281 285.28125 534.015625 284.867188 534.832031 284.527344 C 535.652344 284.1875 536.496094 283.933594 537.367188 283.757812 C 538.234375 283.585938 539.113281 283.5 540 283.5 C 540.886719 283.5 541.765625 283.585938 542.632812 283.757812 C 543.503906 283.933594 544.347656 284.1875 545.167969 284.527344 C 545.984375 284.867188 546.761719 285.28125 547.5 285.773438 C 548.238281 286.269531 548.917969 286.828125 549.546875 287.453125 C 550.171875 288.082031 550.730469 288.761719 551.226562 289.5 C 551.71875 290.238281 552.132812 291.015625 552.472656 291.832031 C 552.8125 292.652344 553.066406 293.496094 553.242188 294.367188 C 553.414062 295.234375 553.5 296.113281 553.5 297 Z M 553.5 297"/><path fill="#494949" fill-opacity="1" fill-rule="nonzero" d="M 391.5 627.75 L 405 607.5 L 418.5 627.75 L 418.5 526.488281 L 391.5 526.488281 Z M 391.5 627.75"/><path fill="#353535" fill-opacity="1" fill-rule="nonzero" d="M 405 553.5 C 407.097656 553.5 409.191406 553.382812 411.277344 553.148438 C 413.363281 552.914062 415.433594 552.5625 417.480469 552.097656 C 419.527344 551.628906 421.539062 551.050781 423.523438 550.359375 C 425.503906 549.664062 427.441406 548.863281 429.332031 547.953125 C 431.226562 547.042969 433.0625 546.03125 434.839844 544.917969 C 436.617188 543.800781 438.328125 542.589844 439.972656 541.28125 C 441.613281 539.976562 443.179688 538.578125 444.664062 537.097656 C 446.152344 535.613281 447.550781 534.054688 448.863281 532.414062 L 478.265625 495.664062 C 480.769531 492.539062 482.683594 489.082031 484.011719 485.304688 C 485.339844 481.523438 486 477.628906 486 473.621094 C 486 471.300781 485.773438 469.007812 485.320312 466.734375 C 484.871094 464.460938 484.199219 462.253906 483.3125 460.109375 C 482.425781 457.96875 481.339844 455.933594 480.050781 454.007812 C 478.761719 452.082031 477.296875 450.296875 475.660156 448.660156 L 474.132812 447.132812 C 471.871094 444.871094 469.5 442.722656 467.023438 440.691406 C 464.550781 438.660156 461.980469 436.753906 459.320312 434.976562 C 456.65625 433.195312 453.914062 431.554688 451.089844 430.042969 C 448.265625 428.535156 445.375 427.167969 442.417969 425.941406 C 439.457031 424.714844 436.445312 423.640625 433.382812 422.710938 C 430.316406 421.78125 427.214844 421.003906 424.074219 420.378906 C 420.933594 419.753906 417.769531 419.285156 414.582031 418.96875 C 411.398438 418.65625 408.203125 418.5 405 418.5 C 401.796875 418.5 398.605469 418.65625 395.417969 418.96875 C 392.230469 419.285156 389.066406 419.753906 385.925781 420.378906 C 382.785156 421.003906 379.683594 421.78125 376.621094 422.707031 C 373.554688 423.636719 370.542969 424.714844 367.585938 425.941406 C 364.628906 427.167969 361.734375 428.535156 358.910156 430.042969 C 356.089844 431.550781 353.34375 433.195312 350.683594 434.976562 C 348.019531 436.753906 345.449219 438.660156 342.976562 440.691406 C 340.5 442.722656 338.128906 444.871094 335.867188 447.132812 L 334.339844 448.660156 C 332.703125 450.296875 331.238281 452.078125 329.949219 454.007812 C 328.664062 455.933594 327.574219 457.96875 326.6875 460.109375 C 325.800781 462.25 325.128906 464.457031 324.679688 466.730469 C 324.226562 469.003906 324 471.300781 324 473.621094 C 324 477.628906 324.660156 481.523438 325.988281 485.304688 C 327.316406 489.082031 329.230469 492.539062 331.734375 495.664062 L 361.136719 532.414062 C 362.449219 534.054688 363.847656 535.613281 365.335938 537.097656 C 366.820312 538.578125 368.386719 539.976562 370.027344 541.28125 C 371.671875 542.589844 373.382812 543.800781 375.160156 544.917969 C 376.9375 546.03125 378.773438 547.042969 380.667969 547.953125 C 382.558594 548.863281 384.496094 549.664062 386.476562 550.359375 C 388.460938 551.050781 390.472656 551.628906 392.519531 552.097656 C 394.566406 552.5625 396.636719 552.914062 398.722656 553.148438 C 400.808594 553.382812 402.902344 553.5 405 553.5 Z M 405 553.5"/></svg>